# xmcd
#
# Track frame offsets:
#	150
#	12746
#	36608
#	51661
#	84094
#	96716
#	106318
#	118993
#	139287
#	150081
#	172757
#	188712
#
# Disc length: 2679 seconds
#
# Revision: 1
# Processed by: cddbd v1.5.2PL0 Copyright (c) Steve Scherf et al.
# Submitted via: audiograbber 1.83.01
#
DISCID=a40a750c
DTITLE=James Brown - Icon
DYEAR=2010
DGENRE=Blues
TTITLE0=I Got You (I Feel Good) 
TTITLE1=Get Up (I Feel Like Being Being A) Sex Machine (Pt 1 and 2)
TTITLE2=Soul Power
TTITLE3=Cold Sweat
TTITLE4=It's A Man's Man's World
TTITLE5=Papa's Got A Brand New Bag (Pt 1)
TTITLE6=Say It Loud (I'm Black And I'm Proud)
TTITLE7=Papa Don't Take No Mess (Pt 1)
TTITLE8=Prisoner Of Love
TTITLE9=Super Bad (Pts 1 and 2)
TTITLE10=The Payback (Pt 1)
TTITLE11=Please Please Please
EXTD=
EXTT0=
EXTT1=
EXTT2=
EXTT3=
EXTT4=
EXTT5=
EXTT6=
EXTT7=
EXTT8=
EXTT9=
EXTT10=
EXTT11=
PLAYORDER=
